<svg width="24" height="24" viewBox="0 0 24 24" fill="none" xmlns="http://www.w3.org/2000/svg">
<g clip-path="url(#clip0_1391_66)">
<path d="M9.68198 0C4.54933 0 0.387695 4.16168 0.387695 9.29429C0.387695 14.4269 4.54933 18.5886 9.68198 18.5886C11.6556 18.5886 13.4861 17.9729 14.9906 16.9243L22.0193 23.9519C22.0827 24.0153 22.1855 24.0153 22.2456 23.9562L23.5698 22.6321C23.631 22.5709 23.6256 22.4659 23.5655 22.4057L16.6286 15.4689C18.0894 13.8277 18.9762 11.6648 18.9762 9.29425C18.9763 4.16168 14.8146 0 9.68198 0ZM9.68198 17.4951C5.15294 17.4951 1.48113 13.8233 1.48113 9.29429C1.48113 4.76525 5.1529 1.09347 9.68198 1.09347C14.2111 1.09347 17.8828 4.76525 17.8828 9.29429C17.8828 13.8233 14.211 17.4951 9.68198 17.4951Z" fill="#6A033C"/>
</g>
<defs>
<clipPath id="clip0_1391_66">
<rect width="24" height="24" fill="white"/>
</clipPath>
</defs>
</svg>
